<svg xmlns="http://www.w3.org/2000/svg" viewBox="0 0 202.93 205.8"><g data-name="Calque 2"><g data-name="Calque 1"><path d="M161.5 28.52a3.8 3.8 0 01-3.25 4.18 3.54 3.54 0 01-2.74-.78 3.58 3.58 0 01-1.44-2.47 3.88 3.88 0 013.27-4.2 3.8 3.8 0 014.16 3.27zM179.49 72.47a9 9 0 01-3.13-3.89 9.53 9.53 0 01-.65-7.39 9.31 9.31 0 015.12-5.52 9.26 9.26 0 0112.93 4.46 9.5 9.5 0 011.24 4.81l-3.1 1.5a9.24 9.24 0 00-.95-4.77 5.79 5.79 0 00-3.45-3.1 7.24 7.24 0 00-8.5 4.09 6 6 0 00.41 4.8 7.27 7.27 0 003.24 3.47zM192.86 89.31a10.05 10.05 0 01-7.41-.67A9.24 9.24 0 01182.36 76 11.42 11.42 0 01196 72.66a9.3 9.3 0 013.12 12.63 10.09 10.09 0 01-6.26 4.02zm-3.36-13.65a7.27 7.27 0 00-4.23 2.48 4.94 4.94 0 001.73 7.29 7.32 7.32 0 004.91.21 7.41 7.41 0 004.27-2.46 4.56 4.56 0 00.79-4.09 4.5 4.5 0 00-2.59-3.22 7.35 7.35 0 00-4.88-.21zM183.84 97.26l-.07-3.53 18.87-.36.07 4-7.78 4.69c-1.27.77-2.46 1.46-3.55 2.07s-1.89 1-2.35 1.23l-.69.32c1.54-.18 3.76-.29 6.66-.35l7.86-.15.07 3.56-18.87.36-.07-4 7.75-4.74c1.22-.75 2.38-1.43 3.5-2s1.93-1 2.43-1.27l.78-.35a59.9 59.9 0 01-6.75.44zM197.33 126.53l.81-4.72-15.73-2.7.6-3.5 15.73 2.7.81-4.72 2.87.49L200.2 127zM180.32 128l1.3-3.46L197 137.12l-1.61 4.27-19.91-.67 1.34-3.56 4.49.25 2.51-6.68zm6.58 5.17l-.67-.52-1.87 5 .87.06c2.12.11 3.88.23 5.31.33s2.32.18 2.68.22l.57.09c-.79-.54-3.11-2.27-6.89-5.22zM168 154.34a9 9 0 011.65-4.71 9.55 9.55 0 015.94-4.46 9.31 9.31 0 017.38 1.44A9.26 9.26 0 01186 160a9.53 9.53 0 01-3.46 3.54l-2.92-1.84a9.21 9.21 0 003.56-3.32 5.82 5.82 0 00.81-4.57 6.43 6.43 0 00-3.05-4 6.35 6.35 0 00-4.88-1 6 6 0 00-3.86 2.87 7.37 7.37 0 00-1.24 4.59zM169.33 175.27l3.23-3.54L160.77 161l2.4-2.63L175 169.1l3.23-3.53 2.15 2-8.86 9.7zM134.14 193.44a3.8 3.8 0 01-2-4.89 3.52 3.52 0 012-2 3.56 3.56 0 012.86 0 3.86 3.86 0 012 4.92 3.79 3.79 0 01-4.9 2zM87.05 187.26a9 9 0 014.93-.8 9.54 9.54 0 016.74 3.1 9.33 9.33 0 012.27 7.18 9.27 9.27 0 01-10.28 9 9.59 9.59 0 01-4.77-1.35l.23-3.44a9.22 9.22 0 004.61 1.54 5.84 5.84 0 004.41-1.46 7.25 7.25 0 00.61-9.35 6 6 0 00-4.36-2 7.41 7.41 0 00-4.62 1.1zM65.8 190.55a10 10 0 014.24-6.1A9.25 9.25 0 0182.53 188a11.41 11.41 0 01-3.83 13.55 8.32 8.32 0 01-7 .79 8.42 8.42 0 01-5.52-4.34 10.1 10.1 0 01-.38-7.45zm13.52 3.83a7.3 7.3 0 00-.06-4.91 4.61 4.61 0 00-3.14-2.69 4.56 4.56 0 00-4.08.63 8.82 8.82 0 00-2.58 9.09 5 5 0 007.25 2.06 7.49 7.49 0 002.61-4.18zM63.36 178.78l3.1 1.69-9 16.57-3.51-1.92-.26-9.12v-4.12c0-1.26 0-2.14.09-2.65l.06-.76q-.91 2.15-3 6l-3.84 6.9-3.12-1.7 9-16.56 3.63 1.89.27 9.08q.07 2.15 0 4c0 1.28-.06 2.19-.1 2.74l-.08.85a59 59 0 013-6.07zM31.24 175.94l3.69 3.06 10.16-12.31 2.75 2.31-10.17 12.3 3.69 3.05-1.85 2.25-10.13-8.36zM38.46 160.49l2.36 2.84-18.59 7.15-2.92-3.48 10.44-17 2.43 2.93-2.44 3.77 4.57 5.49zm-7.75 3.16l.79-.33-3.4-4.09-.49.73q-1.71 2.67-2.91 4.45c-.8 1.18-1.31 1.92-1.52 2.22l-.36.45q1.25-.7 7.89-3.43zM21.64 136.68a9 9 0 013.28 3.77 9.54 9.54 0 01.94 7.36 9.33 9.33 0 01-4.86 5.72 9.26 9.26 0 01-13.1-3.95 9.48 9.48 0 01-1.38-4.76l3-1.62a9.28 9.28 0 001.13 4.73 5.78 5.78 0 003.57 3 6.39 6.39 0 004.95-.7 6.32 6.32 0 003.31-3.72 6.05 6.05 0 00-.59-4.78 7.4 7.4 0 00-3.37-3.34zM2.77 127.51l1.47 4.56 15.19-4.91 1.09 3.38-15.18 4.91L6.81 140l-2.81.9-4-12.5zM4.45 88a3.62 3.62 0 012.76-.73 3.62 3.62 0 012.49 1.35 3.54 3.54 0 01.73 2.75 3.63 3.63 0 01-4.16 3.22 3.68 3.68 0 01-2.51-1.38A3.8 3.8 0 014.45 88zM33.13 50.14a8.94 8.94 0 01-1.76 4.67 9.57 9.57 0 01-6 4.32A9.33 9.33 0 0118 57.52a9.24 9.24 0 01-2.73-13.4 9.53 9.53 0 013.54-3.47l2.87 1.91A9.17 9.17 0 0018 45.8a5.79 5.79 0 00-.92 4.54 6.4 6.4 0 003 4 6.31 6.31 0 004.85 1.15 6 6 0 003.93-2.78 7.37 7.37 0 001.34-4.56zM40.84 30A10 10 0 0144 36.75a8.3 8.3 0 01-2.77 6.43 8.35 8.35 0 01-6.5 2.65 10 10 0 01-6.66-3.31 10.09 10.09 0 01-3.21-6.73 8.32 8.32 0 012.77-6.44 8.41 8.41 0 016.51-2.68 10.16 10.16 0 016.7 3.33zm-10 9.84a7.25 7.25 0 004.3 2.38A4.93 4.93 0 0040.46 37a7.34 7.34 0 00-2.32-4.33 7.45 7.45 0 00-4.29-2.42 5 5 0 00-5.38 5.28 7.41 7.41 0 002.33 4.34zM52.28 33.71l-3 1.86-9.92-16 3.4-2.11 8 4.31c1.31.7 2.51 1.37 3.59 2s1.84 1.09 2.26 1.38l.63.44q-1.41-1.86-3.7-5.55l-4.13-6.7 3-1.87 9.93 16.05-3.41 2.08-8-4.25c-1.27-.66-2.45-1.32-3.54-2s-1.9-1.1-2.39-1.41l-.7-.49A62.06 62.06 0 0148.15 27zM70.6 7.21l-4.47 1.71 5.66 14.91-3.32 1.27-5.67-14.92-4.47 1.7-1-2.73 12.24-4.66zM80.44 21.15l-3.64.64 3-19.69 4.49-.79 9.55 17.48-3.75.66-2.06-4L81 16.7zm1.1-8.3l-.1.85 5.24-.92-.4-.79q-1.45-2.81-2.41-4.73T82.7 4.83l-.21-.53c-.01.95-.32 3.8-.95 8.55zM109.5 18.36a9 9 0 01-4.9 1 9.57 9.57 0 01-6.86-2.84 9.3 9.3 0 01-2.53-7.08A9.27 9.27 0 01105.13 0a9.53 9.53 0 014.81 1.17l-.09 3.45a9.16 9.16 0 00-4.67-1.36 5.76 5.76 0 00-4.35 1.63A6.4 6.4 0 0099 9.53a6.3 6.3 0 001.59 4.72 6 6 0 004.41 1.86 7.37 7.37 0 004.58-1.28zM126.77 6.49l-4.69-1-3.24 15.62-3.48-.72 3.24-15.6-4.69-1L114.5 1l12.86 2.67z"/></g></g></svg>